<svg id="Слой_1" data-name="Слой 1" xmlns="http://www.w3.org/2000/svg" xmlns:xlink="http://www.w3.org/1999/xlink" viewBox="0 0 1794.16 1080.18"><defs><style>.cls-1{fill:url(#Безымянный_градиент_42);}.cls-2{fill:url(#Безымянный_градиент_86);}.cls-3{fill:url(#Безымянный_градиент_96);}</style><linearGradient id="Безымянный_градиент_42" x1="784.77" y1="325.57" x2="1786.87" y2="1227.86" gradientUnits="userSpaceOnUse"><stop offset="0.47" stop-color="#3f5efb"/><stop offset="1" stop-color="#247ffb"/></linearGradient><linearGradient id="Безымянный_градиент_86" x1="937.22" y1="389.58" x2="1823.29" y2="1187.4" gradientUnits="userSpaceOnUse"><stop offset="0.06" stop-color="#3f70fb"/><stop offset="1" stop-color="#3f5efb"/></linearGradient><linearGradient id="Безымянный_градиент_96" x1="1234.68" y1="484.69" x2="1909.18" y2="1092.01" gradientUnits="userSpaceOnUse"><stop offset="0.06" stop-color="#3f7ffb"/><stop offset="1" stop-color="#3f5efb"/></linearGradient></defs><path class="cls-1" d="M125.84,1080c2.93-47.06,52.52-79,120.66-92.88,70.74-14.38,149.8,1.88,220.07-13.5C528.83,960,574,923.28,600.85,883.76s38.85-82.63,56.93-124.28c10.84-25,24.31-50,48.2-70.62,82-70.77,250.91-65.93,352.42-124.61,82.43-47.64,102.95-127.53,94.44-199.66-5.11-43.35-18.73-86.23-20.56-129.69s11-88.3,48.81-123.87C1249.1,47.13,1484-.18,1484-.18L1920,0V1080Z" transform="translate(-125.84 0.18)"/><path class="cls-2" d="M1920,24.32c-184-2.93-451.45,13.9-569.1,124.44-37.86,35.57-50.64,80.41-48.81,123.87s15.45,86.34,20.56,129.7c8.52,72.13-12,152-94.43,199.66-101.52,58.68-270.45,53.83-352.42,124.6-23.9,20.64-37.37,45.65-48.21,70.62-18.08,41.66-30,84.77-56.92,124.29s-72,76.23-134.29,89.86c-70.27,15.38-149.32-.89-220.07,13.5-42.81,8.7-100.75,55.14-100.75,55.14H1920" transform="translate(-125.84 0.18)"/><path class="cls-3" d="M802.57,1080s55-41.26,71.87-66c26.9-39.52,38.85-82.63,56.93-124.28,10.83-25,24.3-50,48.2-70.62,82-70.78,250.9-65.93,352.42-124.61,82.42-47.64,103-127.53,94.44-199.66-5.12-43.35-18.74-86.23-20.57-129.69s11-88.3,48.81-123.87C1552.26,149.53,1920,117.37,1920,117.37V1080Z" transform="translate(-125.84 0.18)"/></svg>