<svg id="Слой_1" data-name="Слой 1" xmlns="http://www.w3.org/2000/svg" xmlns:xlink="http://www.w3.org/1999/xlink" viewBox="0 0 2750.01 1854.86"><defs><style>.cls-1{fill:none;}.cls-2{fill:#fff;}.cls-3{clip-path:url(#clip-path);}.cls-4{fill:url(#Gradient_bez_nazwy_2);}.cls-5{clip-path:url(#clip-path-2);}.cls-6{fill:url(#Gradient_bez_nazwy_2-2);}.cls-7{fill:url(#Gradient_bez_nazwy_2-3);}</style><clipPath id="clip-path" transform="translate(0 474.04)"><path class="cls-1" d="M1920,12.6V1067.4c0,6.95-6.7,12.6-14.93,12.6H14.93C6.7,1080,0,1074.35,0,1067.4V12.6C0,5.65,6.7,0,14.93,0H1905.07C1913.3,0,1920,5.65,1920,12.6Z"/></clipPath><linearGradient id="Gradient_bez_nazwy_2" x1="668.46" y1="-173.26" x2="855.91" y2="-574.94" gradientTransform="matrix(-0.48, -0.88, -0.88, 0.48, 2012.39, 1200.74)" gradientUnits="userSpaceOnUse"><stop offset="0" stop-color="#f59e26"/><stop offset="1" stop-color="#efbe3d"/></linearGradient><clipPath id="clip-path-2" transform="translate(0 474.04)"><path class="cls-1" d="M2520.91,1245.2c254.52-32,265.2-203.21,184.37-298.4-114.5-134.85-219.05-112.89-59.33-335,54.23-75.41,75.08-171.7,34-255-29.54-59.9-90.63-109-164.42-127.23-41.05-10.15-84.46-10.87-126.49-17.58s-85.23-21.06-109.73-50.64c-23.6-28.49-25.58-66-19.91-100.41,13.61-82.81,67.26-158.62,72-242.7,4.05-70.88-23.74-152.24-83-203.8-77.65-67.5-198.29-82-304.39-87.21-124.44-6.1-249.87,9.64-368.19,42.21C1424.26-388.8,1284.27-319.94,1159.7-236,1048.79-161.24,948.58-73.37,877.62,30.35c-112.24,164-177.2,431.46,51.47,548.84C1204.38,720.51,1382,475.5,1396.91,716.58c8.94,144.26,131.41,369.83,465.38,257.47S2154.37,1291.37,2520.91,1245.2Z"/></clipPath><linearGradient id="Gradient_bez_nazwy_2-2" x1="1518.28" y1="493.92" x2="1566.77" y2="64.66" gradientTransform="matrix(1, 0, 0, 1, 0, 0)" xlink:href="#Gradient_bez_nazwy_2"/><linearGradient id="Gradient_bez_nazwy_2-3" x1="1279.15" y1="898.19" x2="1651" y2="193.16" gradientTransform="matrix(1, 0, 0, 1, 0, 0)" xlink:href="#Gradient_bez_nazwy_2"/></defs><rect class="cls-2" y="474.04" width="1920" height="1080"/><g class="cls-3"><path class="cls-4" d="M2520.91,1245.2c254.52-32,265.2-203.21,184.37-298.4-114.5-134.85-219.05-112.89-59.33-335,54.23-75.41,75.08-171.7,34-255-29.54-59.9-90.63-109-164.42-127.23-41.05-10.15-84.46-10.87-126.49-17.58s-85.23-21.06-109.73-50.64c-23.6-28.49-25.58-66-19.91-100.41,13.61-82.81,67.26-158.62,72-242.7,4.05-70.88-23.74-152.24-83-203.8-77.65-67.5-198.29-82-304.39-87.21-124.44-6.1-249.87,9.64-368.19,42.21C1424.26-388.8,1284.27-319.94,1159.7-236,1048.79-161.24,948.58-73.37,877.62,30.35c-112.24,164-177.2,431.46,51.47,548.84C1204.38,720.51,1382,475.5,1396.91,716.58c8.94,144.26,131.41,369.83,465.38,257.47S2154.37,1291.37,2520.91,1245.2Z" transform="translate(0 474.04)"/><g class="cls-5"><path class="cls-6" d="M816.91,315.18c5.13-145.3,139.14-164.83,220.54-127,115.31,53.56,106.27,113.94,268.65,6.78,55.13-36.38,129.35-55.69,198.21-39.24,49.53,11.84,93,42.22,113.26,82.17,11.23,22.22,15.24,46.52,23.85,69.56S1664.75,353.58,1690,365c24.31,11,54,9.13,80.69,3.23,64.17-14.19,119.66-50.28,185.53-59.62,55.53-7.87,121.83,1.28,167.15,30.47,59.32,38.22,80.3,104.74,92.79,163.84,14.64,69.32,12.17,140.93-4.14,209.87-20.9,88.32-64.09,172.29-120.38,248.81-50.12,68.12-111.43,131.29-187.54,179.3-120.37,75.93-325.94,133.52-436.52,14.53-133.13-143.24,45.88-262.23-145.25-251.55-114.37,6.4-301.79-44.46-239.68-240.68S809.52,524.44,816.91,315.18Z" transform="translate(0 474.04)"/><path class="cls-7" d="M836.05,336.45c59.39-127.73,185.83-109.07,243.88-53.61,82.24,78.57,51.43,129.79,236.14,78.2,62.71-17.51,136-14.73,190.92,18.39,39.53,23.82,66.74,62.51,69.61,103.43,1.6,22.77-4,45.43-5,68.22s3.31,47.27,21.44,64.18c17.46,16.29,44.55,22.62,70.48,24.55,62.36,4.63,125.28-12.52,187.33-3.13,52.31,7.92,107.77,33.87,137,72,38.28,49.9,31.82,114.64,20.61,170.5-13.15,65.53-42.37,128.48-82.88,185.35-51.9,72.86-122,135.87-200.85,188.73-70.24,47.06-148.55,86.71-234.29,108.91-135.6,35.13-340,31.07-393.33-104.36-64.22-163,139.73-220.66-34.13-262.52-104-25-251.35-120.58-122.11-278.24S750.52,520.39,836.05,336.45Z" transform="translate(0 474.04)"/></g></g></svg>