<svg id="Слой_1" data-name="Слой 1" xmlns="http://www.w3.org/2000/svg" viewBox="0 0 80 60"><defs><style>.cls-1{fill:#425ca7;}.cls-2{fill:#f7c24f;}</style></defs><path class="cls-1" d="M33.62,80h0c4.77,0,8.23-3.78,6.93-7.6l-16.27-48c-.87-2.58-3.7-4.36-6.93-4.36H17.2c-4.77,0-8.23,3.79-6.92,7.61l16.42,48C27.58,78.23,30.4,80,33.62,80Z" transform="translate(-10 -20)"/><path class="cls-2" d="M66.42,80h0c4.77,0,8.22-3.78,6.93-7.6l-16.27-48C56.2,21.78,53.37,20,50.15,20H50c-4.78,0-8.23,3.79-6.93,7.61l16.42,48C60.37,78.23,63.2,80,66.42,80Z" transform="translate(-10 -20)"/><path class="cls-2" d="M66.38,80h0c-4.77,0-8.23-3.78-6.93-7.6l16.27-48c.87-2.58,3.7-4.36,6.93-4.36h.15c4.77,0,8.23,3.79,6.92,7.61l-16.42,48C72.42,78.23,69.6,80,66.38,80Z" transform="translate(-10 -20)"/><path class="cls-1" d="M33.72,80h0c-4.77,0-8.23-3.78-6.93-7.6l16.27-48C43.93,21.78,46.76,20,50,20h.15c4.77,0,8.23,3.79,6.92,7.61l-16.42,48C39.76,78.23,36.94,80,33.72,80Z" transform="translate(-10 -20)"/></svg>